<?xml version="1.0" encoding="UTF-8"?><svg id="Layer_2" xmlns="http://www.w3.org/2000/svg" viewBox="0 0 1688.85 1322.78"><defs><style>.cls-1{fill:#fff;}</style></defs><g id="Layer_1-2"><path class="cls-1" d="M1503.59,1076.01c-127.49,2.13-254.97,4.41-382.45,6.67-38.49.68-76.98,1.49-115.47,2.21-2.31.04-4.63-.17-9.23-.35,7.6-9.62,13.93-17.9,20.52-25.94,14.28-17.42,28.78-34.65,42.95-52.16,10.8-13.26,10.49-13.26,16.52-20.55,4.51-5.45,7.8-9.88,13.01-16.13.62-.75,2.71-3.48,3.45-4.11,6.73-8.88,13.47-17.76,20.67-26.21,16.69-19.57,28.19-45.29,49.75-58.56,21.47-13.21,45.27-22.88,67.25-35.77,75.81-44.47,141.01-102.98,201.61-167.12,11.31-11.98,22.4-24.15,33.19-36.57,46.77-3.46,95.53-7.21,134.11-8.89,57.54-2.99,75.74-8.71-.21-9.23-36.85,1.24-78.11,2.1-120.9,2.86,33.52-40.11,63.89-82.85,89.18-129.59,13.76-25.44,26.99-51.14,32.46-80.29,2.51-13.37.26-25.12-10.06-33.91-10.13-8.62-21.18-5.48-31.85-.82-28.97,12.67-52.47,33.64-75.44,55.1-62.59,58.47-117.15,124.58-169.7,192.55-32.54.76-63.77,1.67-92.34,2.88-79.73,3.37-159.39,8.85-239.08,13.32-3.05.17-6.13-.21-9.42-.34.31-5.83,4.02-8.84,6.52-12.32,108.23-150.27,216.95-300.16,334.75-442.58,42.11-50.91,85.09-101.1,134.8-144.39,6.26-5.45,12.98-10.33,20.22-14.66-8.59,20.04-20.22,37.85-31.46,55.88-26.39,42.34-55.16,83.08-79.39,126.87-4.78,8.64-8.71,17.81-12.69,26.89-1.39,3.16-3.78,7.67.47,9.87,3.42,1.77,5.54-2.44,7.31-5.06,5.99-8.88,11.75-17.92,17.64-26.87,33.05-50.28,69.3-98.23,100.64-149.75,5.57-9.15,10.92-18.49,15.7-28.1,5.48-11.02,7.64-22.07.45-32.98-6.41-10.88-16.04-10.48-30.82,1.33-90.11,68.3-157.98,158.96-228.32,246.82-96.8,120.9-186.54,247.55-276.42,374.03-9.3,13.09-18.99,20.41-35.11,21.06-31.22,1.24-62.36,4.63-93.56,6.79-13.66.95-13.8.53-8.23-13.13,28.46-69.8,57.9-139.23,79.07-211.94,13.96-47.94,24.91-96.16,23.84-147.18-1.46-70.08-45.73-112.36-110.02-117.87-65.23-5.59-127.68,8.78-188.96,29.58-143.6,48.77-274.56,123.82-399.52,210.85-57.35,39.94-112.96,82.39-161.61,133.79-21.17,22.37-40.48,46.13-52.97,75.33-7.62,20.15-4.74,32.57,3.64,47.27,24.07,33.08,59.63,40.06,95.06,45.84,56.46,9.22,113.47,7.98,170.41,6.25,148.34-4.49,296.23-16.83,444.22-27.54,18.6-1.35,37.28-1.62,56.12-2.41.22,5.02-2.8,9.17-4.69,13.62-35.99,84.59-75.74,167.4-110.09,252.76-9.9,24.6-19.58,49.35-24.39,75.69-1.3,7.12-2.54,14.5.58,21.28,9.26,16.72,23.5,11.12,38.85-3.02,32.79-34.45,58.53-73.01,85.6-110.33,61.36-84.61,122.07-169.73,182.79-254.84,4.5-6.31,9.09-8.81,16.66-9.33,112.13-7.71,224.29-14.72,336.5-20.92-49.32,64.27-99.58,127.84-146.54,193.94-23.21,32.67-52.5,40.67-87.51,40.3-2-.02-4-.22-6-.34-37.55-2.25-55.35-23.96-51.85-63.17,1.42-15.89,5.8-31.01,10.51-46.11,1.46-4.67,5.36-11.33-1.39-14.23-5.2-2.24-8.64,3.45-10.98,7.74-12.12,22.16-19.79,45.69-17.26,71.58,2.89,29.6,30.94,54.5,65.08,58.57,18,2.15,35.96,1.22,56.49-1.17-8.6,11.09-15.93,20.56-23.29,30.01-12.12,15.55-24.3,31.07-36.4,46.64-.87,1.12-1.74,2.17-2.65,3.11-.18.27-.37.55-.55.82-4.97,7.32-10.63,14.15-16.25,20.97-.61.74-1.22,1.47-1.84,2.2-22.66,28.46-43.34,54.39-63.96,80.35-2.99,3.77-7.09,3.38-11.05,3.5-50.76,1.57-101.51,3.13-152.27,4.65-26.29,1.28-52.27,2.87-67.22,3.78-14.68.89-4.82,0-21.39,1.58-67.59,4.14-134.5,13.6-200.59,28.86-38.39,8.86-76.16,19.95-110.83,40.03-12.31,7.13-23.8,15.46-32.37,27.46-13.78,19.3-13.22,37.56,2.06,55.61,11.89,14.04,27.01,23.54,42.94,31.61,69.88,35.37,143.65,47.97,220.88,41.02,85.99-7.74,160.1-44.77,227.49-98.7,40.51-32.43,76.72-69.67,111.26-108.69,8.34-9.43,16.89-14.22,29.81-14.53,137.53-3.22,275.02-7.8,412.55-10.68,87.38-1.83,174.76-4.65,262.18-3.67,3.87.04,7.73-.29,14.13-.56-6.92-6.79-13.29-7.01-19.34-7.35-55.29-3.11-110.61-1.68-165.92-.75ZM588.39,676.03c-35.96,2.76-71.92,5.52-122.52,9.41-92.97,5.52-200.51,15.18-308.48,10.23-33.62-1.54-67.26-3.92-99.91-13.42-35.47-10.32-42.9-28.11-25.93-62.23,19.03-38.27,48.49-67.53,79.85-94.13,157.75-133.83,330.57-240.43,523.94-308.9,50.21-17.78,101.67-30.36,155.18-31,20.18-.24,40.05,2.24,59.26,8.68,34.05,11.41,50.73,36.56,53.1,79.16,2.73,49.12-8.19,96.06-21.93,142.37-24.14,81.35-56.63,159.3-90.22,236.79-2.54,5.86-5.97,8.04-11.74,8.48-63.54,4.78-127.08,9.7-190.61,14.58ZM658.55,1030.5c3.58-23.51,10.96-45.44,19.51-66.85,36.58-91.59,75.91-181.91,116.64-271.57,2.14-4.7,3.73-9.87,10.67-10.11,36.83-1.26,73.64-2.93,111.64-4.5-85.14,117.84-168.88,237.62-258.46,353.03ZM1451.13,511.02c27.11-30.72,54.24-61.51,85.49-87.91,11.86-10.01,24.26-19.22,38.28-25.72,8.13-3.76,12.97-2.37,12.36,8.56-.82,14.91-5.73,28.54-11.48,41.83-24.75,57.17-58.81,108.03-98.44,154.97-6.76,8.01-13.59,15.94-20.5,23.78-34.1.58-68.84,1.14-102.81,1.8,31.43-39.91,63.5-79.27,97.08-117.32ZM1252.04,760.29c28.55-36.94,56.83-74.1,85.53-110.92,13.19-.7,26.38-1.4,39.57-2.08,19.54-1.01,41.7-2.5,64.88-4.17-62.72,69.06-131.56,130.81-210.35,180.53-11.98,7.56-24.37,14.43-36.61,21.54-2.4,1.4-4.99,2.44-7.49,3.65-.66-.53-1.32-1.06-1.98-1.59,22.14-28.99,44.14-58.1,66.45-86.95ZM778.82,1253.84c-66.23,39.77-137.12,60.44-213.61,56.73-52.54-2.55-102.86-16.05-149.89-41.27-11.08-5.94-21.6-12.88-30.17-22.49-12.92-14.47-13.42-31.14-1.06-46.11,16.31-19.74,38.68-29.25,61.33-37.84,49.98-18.96,102.08-28.53,154.5-36.14,111.39-16.17,223.71-19.04,335.83-24.67,1.9-.1,3.82.19,8.59.46-49.78,59.77-101.37,112.81-165.53,151.34Z"/></g></svg>