<?xml version="1.0" encoding="UTF-8"?><svg id="Layer_2" xmlns="http://www.w3.org/2000/svg" viewBox="0 0 1312.45 859.06"><defs><style>.cls-1{fill:#a7a7a7;}.cls-2{fill:#1af2f2;}</style></defs><g id="Layer_1-2"><path class="cls-2" d="M307.3,421.92h-54.01v110.24h-34.15v-270.22h79.25c12.62.25,24.5,2.04,35.63,5.38,11.14,3.34,20.88,8.35,29.23,15.03,8.35,6.68,14.91,15.06,19.67,25.15,4.76,10.09,7.15,21.93,7.15,35.54,0,8.79-1.27,16.83-3.8,24.13-2.54,7.3-6.03,13.92-10.49,19.86s-9.78,11.2-15.96,15.78c-6.19,4.58-12.99,8.48-20.41,11.69l57.35,115.44-.19,2.23h-36.19l-53.08-110.24ZM253.29,393.71h46.03c7.67-.12,14.91-1.33,21.71-3.62,6.8-2.29,12.77-5.6,17.91-9.93,5.13-4.33,9.19-9.62,12.16-15.87,2.97-6.25,4.45-13.46,4.45-21.62,0-8.66-1.42-16.24-4.27-22.73-2.85-6.5-6.81-11.94-11.88-16.33-5.07-4.39-11.11-7.7-18.09-9.93-6.99-2.23-14.63-3.4-22.92-3.53h-45.1v103.56Z"/><path class="cls-2" d="M621.69,412.64c-.12,9.65-.96,19.39-2.5,29.23-1.55,9.84-3.93,19.33-7.15,28.49-3.22,9.16-7.33,17.69-12.34,25.61-5.01,7.92-10.98,14.85-17.91,20.79-6.93,5.94-14.88,10.61-23.85,14.01-8.97,3.4-19.02,5.1-30.16,5.1s-21.19-1.7-30.16-5.1c-8.97-3.4-16.92-8.07-23.85-14.01-6.93-5.94-12.93-12.9-18-20.88-5.07-7.98-9.25-16.55-12.53-25.7-3.28-9.15-5.72-18.62-7.33-28.4-1.61-9.77-2.48-19.49-2.6-29.14v-30.81c.12-9.65.96-19.39,2.51-29.23,1.55-9.84,3.96-19.33,7.24-28.49,3.28-9.15,7.42-17.72,12.43-25.7s10.98-14.97,17.91-20.97c6.93-6,14.88-10.7,23.85-14.1,8.97-3.4,19.02-5.1,30.16-5.1s21.22,1.7,30.25,5.1c9.03,3.4,17.01,8.07,23.94,14.01,6.93,5.94,12.9,12.9,17.91,20.88,5.01,7.98,9.15,16.55,12.43,25.7,3.28,9.16,5.69,18.68,7.24,28.58,1.55,9.9,2.38,19.67,2.5,29.32v30.81ZM587.72,381.46c-.12-6.43-.56-13.14-1.3-20.14-.74-6.99-2.01-13.92-3.8-20.79-1.8-6.87-4.18-13.42-7.15-19.67-2.97-6.25-6.68-11.75-11.14-16.52-4.45-4.76-9.71-8.54-15.78-11.32-6.06-2.78-13.12-4.18-21.16-4.18s-14.91,1.42-20.97,4.27c-6.06,2.85-11.32,6.65-15.78,11.41-4.45,4.76-8.17,10.27-11.14,16.52-2.97,6.25-5.35,12.81-7.15,19.67-1.8,6.87-3.09,13.8-3.9,20.79-.81,6.99-1.27,13.64-1.39,19.95v31.18c.12,6.31.59,12.99,1.39,20.04.8,7.05,2.13,14.01,3.99,20.88s4.27,13.46,7.24,19.77,6.68,11.85,11.14,16.61c4.45,4.76,9.71,8.57,15.78,11.41,6.06,2.85,13.11,4.27,21.16,4.27s15.13-1.42,21.25-4.27c6.12-2.84,11.38-6.65,15.78-11.41,4.39-4.76,8.04-10.27,10.95-16.52,2.91-6.25,5.26-12.81,7.05-19.67,1.79-6.87,3.03-13.83,3.71-20.88.68-7.05,1.08-13.79,1.21-20.23v-31.18Z"/><path class="cls-2" d="M738.79,406.71l-30.07,34.15v91.31h-35.08v-270.22h35.08v131.95l26.17-32.66,79.25-99.29h41.76l-94.47,118.22,100.78,152h-41.76l-81.66-125.46Z"/><path class="cls-2" d="M1050.77,407.26h-112.84v95.76h131.58v29.14h-165.92v-270.22h164.25v29.32h-129.91v86.86h112.84v29.14Z"/><path class="cls-2" d="M1312.45,291.27h-83.52v240.9h-33.41v-240.9h-83.52v-29.32h200.44v29.32Z"/><path class="cls-1" d="M979.91,56.5L380.34,802.7,52.53,293.71,979.91,56.5M1067.65,0L0,273.09l377.38,585.97L1067.65,0h0Z"/></g></svg>